<!DOCTYPE svg PUBLIC "-//W3C//DTD SVG 1.1//EN" "http://www.w3.org/Graphics/SVG/1.1/DTD/svg11.dtd">
<!-- Uploaded to: SVG Repo, www.svgrepo.com, Transformed by: SVG Repo Mixer Tools -->
<svg fill="#fff" height="800px" width="800px" version="1.1" id="Layer_1" xmlns="http://www.w3.org/2000/svg" xmlns:xlink="http://www.w3.org/1999/xlink" viewBox="0 0 512 512" xml:space="preserve" stroke="#fff">
<g id="SVGRepo_bgCarrier" stroke-width="0"/>
<g id="SVGRepo_tracerCarrier" stroke-linecap="round" stroke-linejoin="round"/>
<g id="SVGRepo_iconCarrier"> <g> <g> <path d="M503.83,157.959h-92.598V8.17c0-4.512-3.658-8.17-8.17-8.17H108.934c-4.512,0-8.17,3.658-8.17,8.17v149.788H8.17 c-4.512,0-8.17,3.658-8.17,8.17V503.83c0,4.512,3.658,8.17,8.17,8.17h495.66c4.512,0,8.17-3.658,8.17-8.17V166.129 C512,161.617,508.342,157.959,503.83,157.959z M117.104,16.34h277.787v237.707l-82.357,74.815 c-0.025,0.022-0.049,0.045-0.074,0.068l-56.465,51.294l-56.439-51.27c-0.038-0.035-0.075-0.07-0.113-0.104l-82.339-74.799V16.34z M495.66,495.66H16.34V174.299h84.423v64.909l-51.126-46.444c-3.339-3.034-8.507-2.787-11.541,0.553 c-3.034,3.34-2.787,8.507,0.553,11.541L181.89,334.98L38.655,465.099c-3.34,3.034-3.587,8.201-0.553,11.541 c1.612,1.775,3.827,2.677,6.05,2.677c1.96,0,3.926-0.702,5.491-2.123l144.398-131.174l56.462,51.292 c1.558,1.415,3.525,2.123,5.494,2.123c1.969,0,3.936-0.707,5.494-2.123l56.466-51.295l144.406,131.182 c1.565,1.422,3.531,2.123,5.491,2.123c2.223,0,4.438-0.902,6.05-2.677c3.034-3.34,2.787-8.507-0.553-11.541L330.106,334.977 l143.238-130.121c3.34-3.034,3.587-8.201,0.553-11.541s-8.201-3.587-11.541-0.553l-51.125,46.443V174.3h84.428V495.66z"/> </g> </g> <g> <g> <path d="M337.7,65.362H174.296c-4.512,0-8.17,3.658-8.17,8.17s3.658,8.17,8.17,8.17H337.7c4.512,0,8.17-3.658,8.17-8.17 S342.212,65.362,337.7,65.362z"/> </g> </g> <g> <g> <path d="M337.7,108.936H174.296c-4.512,0-8.17,3.658-8.17,8.17s3.658,8.17,8.17,8.17H337.7c4.512,0,8.17-3.658,8.17-8.17 S342.212,108.936,337.7,108.936z"/> </g> </g> <g> <g> <path d="M255.998,152.511h-81.702c-4.512,0-8.17,3.658-8.17,8.17s3.658,8.17,8.17,8.17h81.702c4.512,0,8.17-3.658,8.17-8.17 S260.51,152.511,255.998,152.511z"/> </g> </g> </g>
</svg>